<svg id="Layer_1" xmlns="http://www.w3.org/2000/svg" viewBox="0 0 347.6 149.7"><style>.st0{fill:#fff}</style><path class="st0" d="M28 48.5H8c-3.9 0-7.1 3.3-7.1 7.3v85.7c0 4 3.2 7.3 7.1 7.3h20c3.9 0 7.1-3.3 7.1-7.3V55.8c0-4-3.2-7.3-7.1-7.3zM196.3 79.6c2.1 0 4.2.4 6 1.1 2.7 1 5.7 3.1 8.5 6.1 2.6 2.9 4.9 2.2 8.6-1.4l15-15c2.1-2.2 1.8-5.9 0-8.3-7.5-8-17.5-13.7-28.7-15.7-3-.6-6.2-.9-9.4-.9-7.8 0-24 2.5-36.5 15l-15.2 15.2-35.6 35.6c-3.2 2.7-7.3 4.4-11.8 4.4-10.8 0-18-8.9-18-18 0-9.9 8-18 18-18 4.2 0 7.7 1.3 10.5 3.4 0 0 5 3.6 6.2 4.2 2.2 1 4.3.1 5.8-1.3 1.5-1.4 14.3-14.3 15.7-15.7 2.1-2.1 2.1-5.7 0-8.2-9.5-10.2-23.1-16.6-38.2-16.6-6.3 0-12.4 1.1-18 3.2V7.9C79.2 4 76 .8 72.1.8h-20C48.1.8 45 4 45 7.9v91.5c.8 23.7 17.4 43.4 39.6 48.8 4 1 8.2 1.5 12.5 1.5 5.6 0 11-.9 16.1-2.5 7.4-2.4 14.1-6.4 19.6-11.6l16.1-16.1 34.2-34.2c.1 0 4.6-5.7 13.2-5.7z"/><path class="st0" d="M311.6 46.1c-3.3-2-31.4-2-35.5 0-2.9 1.5-67.9 64.8-67.9 64.8-3.2 2.9-7.4 4.6-12 4.6s-9.1-1.5-13.1-5.5c-.5-.5-2-1.6-3.1-2-2.2-.6-4.6-.2-6.4 1.3-.2.2-15.3 15.2-15.5 15.5-1.9 2.6-1.8 6.2.3 8.7 9.5 10 22.9 16.2 37.8 16.2 12.2 0 20.8-4.3 21.8-4.8 5.3-2.5 10.1-5.8 14.3-9.8 0 0 50.5-50.5 50.9-50.8 2.6-2.4 4-3.4 4.5-3.8 1.1-.8 6.2-1.1 7.6-1 7.8.1 12.7 4.2 15.8 9.5 1.4 2.5 2.1 5.4 2.1 8.5 0 9.9-8 18-18 18-4.6 0-8.6-1.7-11.9-4.5-5.8-5-8.6-3.9-11.2-1.2l-14.2 14.1c-2.4 2.4-2.9 6.1-1.1 8.7 3.3 4.6 11.8 10.1 15.1 11.8 7.1 3.6 14.7 5.3 23.2 5.3 7.8 0 17.8-2.4 25.1-6.5 15.8-8.9 27-25.3 27-44.8 0-7.1-.9-14-4.3-21.7-5.2-12.6-28.6-29-31.3-30.6z"/><circle class="st0" cx="18" cy="18" r="18"/><path class="st0" d="M326.1 20.3h4.8l4.6 5.9h2.8l-4.9-5.9v-.1c2.7-.4 4.3-2.5 4.3-5.2 0-3.1-2.1-5.3-5.7-5.3h-8.3v16.5h2.3v-5.9zm0-8.5h5.8c2.3 0 3.5 1.3 3.5 3.2 0 1.9-1.2 3.3-3.5 3.3h-5.8v-6.5z"/><path class="st0" d="M330.3 34.8c10.1 0 17.2-7.1 17.2-16.9 0-9.7-7.1-16.9-17.2-16.9S313 8.2 313 18c0 9.7 7.2 16.8 17.3 16.8zm0-31.5c8.8 0 14.9 6.2 14.9 14.7s-6 14.7-14.9 14.7-14.9-6.2-14.9-14.7 6.1-14.7 14.9-14.7z"/></svg>