<svg width="173" height="98" viewBox="0 0 173 98" xmlns="http://www.w3.org/2000/svg" xmlns:xlink="http://www.w3.org/1999/xlink"><title>logo</title><defs><path id="a" d="M0 99h173.945V0H0z"/></defs><g fill="none" fill-rule="evenodd"><path d="M14.73 24.588c1.93 0 3.51 1.623 3.51 3.605v42.34c0 1.984-1.58 3.606-3.51 3.606H4.831c-1.932 0-3.512-1.622-3.512-3.606v-42.34c0-1.982 1.58-3.605 3.512-3.605h9.897zm83.18 15.365c1.049 0 2.052.192 2.987.525 1.324.474 2.81 1.523 4.187 3.013 1.307 1.417 2.44 1.093 4.232-.699.513-.512 4.131-4.147 7.398-7.437 1.06-1.07.872-2.896-.014-4.115a25.752 25.752 0 0 0-14.207-7.76 25.927 25.927 0 0 0-4.637-.423c-3.857 0-11.87 1.22-18.045 7.395l-7.502 7.503L54.725 55.54a8.838 8.838 0 0 1-5.811 2.175c-5.359 0-8.88-4.402-8.88-8.88a8.88 8.88 0 0 1 8.88-8.88c2.095 0 3.788.665 5.204 1.687 0 0 2.486 1.788 3.067 2.075 1.084.494 2.137.059 2.842-.638.725-.715 7.081-7.063 7.769-7.769 1.033-1.062 1.045-2.803-.007-4.061-4.71-5.054-11.422-8.214-18.875-8.214a25.74 25.74 0 0 0-8.875 1.567V4.54c0-1.93-1.58-3.511-3.512-3.511H26.63a3.522 3.522 0 0 0-3.512 3.51l-.004 45.224.02-.016c.408 11.709 8.618 21.431 19.593 24.133a25.79 25.79 0 0 0 23.817-6.22l7.965-7.964 16.92-16.92s2.262-2.823 6.48-2.823" fill="#4C4D4F"/><path d="M154.935 23.403c-1.654-1.01-15.543-.984-17.523 0-1.458.724-33.54 32.006-33.54 32.006a8.837 8.837 0 0 1-5.933 2.286c-2.28 0-4.497-.764-6.46-2.734-.264-.264-.98-.812-1.548-.97a3.53 3.53 0 0 0-3.157.62c-.102.081-7.56 7.522-7.668 7.669a3.525 3.525 0 0 0 .142 4.314c4.7 4.94 11.334 8.02 18.69 8.02 6.04 0 10.277-2.13 10.799-2.371a25.836 25.836 0 0 0 7.071-4.831s24.984-24.958 25.137-25.096c1.301-1.188 1.967-1.668 2.243-1.874.557-.416 3.084-.523 3.762-.505 3.86.024 6.298 2.093 7.813 4.69a8.822 8.822 0 0 1 1.051 4.188 8.881 8.881 0 0 1-8.88 8.88c-2.25 0-4.243-.843-5.862-2.22-2.887-2.452-4.235-1.918-5.556-.6l-7.012 6.984c-1.168 1.162-1.452 3.032-.52 4.312 1.645 2.263 5.81 5.003 7.47 5.816 3.5 1.801 7.282 2.6 11.49 2.6 3.841 0 8.777-1.18 12.413-3.215 7.829-4.382 13.331-12.514 13.331-22.123 0-3.487-.435-6.91-2.12-10.738-2.734-6.205-14.338-14.319-15.633-15.108M9.781.617a8.881 8.881 0 1 0 8.88 8.88 8.88 8.88 0 0 0-8.88-8.88m152.323 5.817v3.21h2.865c1.152 0 1.74-.662 1.74-1.617s-.588-1.593-1.74-1.593h-2.865zm4.63 7.13l-2.255-2.915h-2.375v2.915h-1.153V5.43h4.117c1.764 0 2.792 1.053 2.792 2.597 0 1.348-.784 2.352-2.13 2.572v.05l2.4 2.915h-1.396zm-2.573-11.319c-4.36 0-7.374 3.062-7.374 7.252 0 4.19 2.988 7.253 7.374 7.253 4.387 0 7.375-3.063 7.375-7.253 0-4.19-3.014-7.252-7.375-7.252zm0 15.583c-4.998 0-8.527-3.528-8.527-8.33 0-4.804 3.529-8.33 8.527-8.33 5 0 8.527 3.526 8.527 8.33 0 4.802-3.528 8.33-8.527 8.33z" fill="#4C4D4F"/><path fill="#F60" d="M1.32 97.68V82.62h3.234v5.945h5.694V82.62h3.274v15.06H10.29v-6.611H4.554v6.612z"/><mask id="b" fill="#fff"><use xlink:href="#a"/></mask><path fill="#F60" mask="url(#b)" d="M16.235 97.68h3.233V82.619h-3.233zM30.649 87.5c.021-1.585-.939-2.857-2.879-2.857-2.294 0-2.878 3.4-2.878 5.507 0 2.107.584 5.506 2.878 5.506 1.94 0 2.9-1.27 2.879-2.857h3.441c-.145 3.776-2.857 5.194-6.32 5.194-4.36 0-6.32-3.442-6.32-7.843 0-4.402 1.96-7.844 6.32-7.844 3.463 0 6.175 1.418 6.32 5.194h-3.44zm5.444 10.18V82.62h3.234v5.945h5.694V82.62h3.274v15.06h-3.232v-6.611h-5.736v6.612zm14.832-15.06h10.096v2.503H54.16v3.525h6.423v2.503H54.16v4.026h7.092v2.503H50.925zm16.021 6.486h2.712c1.418-.02 2.252-.73 2.252-2.065s-.834-1.898-2.252-1.918h-2.712v3.983zm0 8.574h-3.234V82.62h6.404c2.586.02 5.235.854 5.235 3.921 0 1.96-1.272 3.254-3.128 3.65v.042c2.481.271 2.481 1.794 2.753 3.88.147.96.272 2.732.877 3.567h-3.567c-.272-1.335-.418-2.692-.563-4.047-.084-.835-.294-1.981-1.357-2.023h-3.42v6.07zm9.327-15.06h12.202v2.503h-4.484V97.68h-3.234V85.123h-4.484zm17.712 4.963v3.796h3.796v2.505h-3.796v3.796h-2.503v-3.796h-3.797v-2.505h3.797v-3.796zm6.548 10.097V82.62h9.722v2.504h-6.488v3.628h6.05v2.503h-6.05v6.425zm19.007-5.695l-2.066-6.425h-.04l-2.211 6.425h4.316zm-9.366 5.695l5.445-15.06h3.837l5.237 15.06h-3.255l-1.083-3.192h-5.967l-1.127 3.192h-3.087zm16.084 0h3.234V82.619h-3.234zm13.975-10.763c-.126-1.524-.938-2.274-2.503-2.274-1.188 0-2.398.625-2.398 1.94 0 1.627 1.46 1.815 2.753 2.127 2.295.585 5.673 1.231 5.673 4.254 0 3.736-3.253 5.03-6.486 5.03-3.442 0-5.883-1.336-5.78-5.132h3.297c-.124 1.667.834 2.795 2.524 2.795 1.294 0 3.003-.397 3.003-2.004 0-1.772-2.148-1.897-3.441-2.231-2.106-.523-4.986-1.48-4.986-4.151 0-3.442 3.17-4.965 6.259-4.965 2.92 0 5.193 1.586 5.193 4.61h-3.108zm13.915 0c-.125-1.524-.94-2.274-2.503-2.274-1.19 0-2.4.625-2.4 1.94 0 1.627 1.462 1.815 2.754 2.127 2.294.585 5.674 1.231 5.674 4.254 0 3.736-3.254 5.03-6.488 5.03-3.441 0-5.881-1.336-5.777-5.132h3.295c-.125 1.667.835 2.795 2.524 2.795 1.293 0 3.005-.397 3.005-2.004 0-1.772-2.149-1.897-3.442-2.231-2.106-.523-4.987-1.48-4.987-4.151 0-3.442 3.172-4.965 6.258-4.965 2.921 0 5.194 1.586 5.194 4.61h-3.107zm4.716-4.297h12.202v2.503h-4.485V97.68h-3.233V85.123h-4.484z"/></g></svg>